<?xml version="1.0" encoding="UTF-8"?><svg xmlns="http://www.w3.org/2000/svg" xmlns:xlink="http://www.w3.org/1999/xlink" viewBox="0 0 850 230"><defs><style>.e,.f,.g{fill:none;}.f{stroke-width:8px;}.f,.g{stroke:#0e0707;stroke-linejoin:round;}.h{fill:#f7c80a;}.i{fill:#f4950c;}.j{fill:#fff;}.k{fill:#e53e5f;}.l{fill:#aa304d;}.m{fill:#1fa062;}.n{fill:#1bbf74;}.o{fill:#42474b;}.p{fill:#0e0707;}.q,.r{fill:#25ec97;}.s{fill:#636d74;}.t{fill:#525a62;}.u{font-size:14px;}.u,.r{font-family:IBMPlexMono-Medium, IBM Plex Mono;}.g{stroke-width:5px;}.r{font-size:21px;}.v{clip-path:url(#d);}</style><clipPath id="d"><rect class="e" y="0" width="850" height="230"/></clipPath></defs><g id="a"/><g id="b"><g id="c"><g class="v"><g><rect class="t" x="25" y="29.28" width="800" height="260"/><rect class="s" x="25" y="29.61" width="240" height="140"/><rect class="f" x="25" y="29.28" width="800" height="260"/><rect class="m" x="45" y="59.61" width="200" height="80" rx="29.41" ry="29.41"/><rect class="f" x="25" y="29.61" width="240" height="140"/><rect class="g" x="45" y="59.61" width="200" height="80" rx="29.41" ry="29.41"/><circle class="o" cx="765" cy="65.28" r="22.5"/><circle class="l" cx="765" cy="59.28" r="20"/><circle class="o" cx="765" cy="115.28" r="22.5"/><circle class="n" cx="765" cy="109.28" r="20"/><circle class="o" cx="765" cy="165.28" r="22.5"/><circle class="n" cx="765" cy="159.28" r="20"/><rect class="o" x="387.56" y="50.43" width="87" height="49" rx="2.5" ry="2.5"/><rect class="s" x="390.05" y="46.93" width="82" height="44"/><circle class="g" cx="765" cy="59.28" r="20"/><rect class="g" x="390.05" y="46.93" width="82" height="44"/><circle class="g" cx="765" cy="109.28" r="20"/><circle class="k" cx="775" cy="59.28" r="20"/><circle class="g" cx="765" cy="159.28" r="20"/><circle class="q" cx="775" cy="109.28" r="20"/><circle class="q" cx="775" cy="159.28" r="20"/><circle class="g" cx="775" cy="59.28" r="20"/><circle class="g" cx="775" cy="109.28" r="20"/><path class="s" d="M557.27,228.69c0-13.61-11.04-24.65-24.65-24.65h-210.71c-13.61,0-24.65,11.04-24.65,24.65h0c0,3.27,2.65,5.92,5.92,5.92h248.16c3.27,0,5.92-2.65,5.92-5.92h0Z"/><circle class="g" cx="775" cy="159.28" r="20"/><g><path class="j" d="M673.32,219.42c-11.25,1.94-22.59-.63-31.92-7.21-9.33-6.59-15.53-16.42-17.47-27.67-1.94-11.25,.63-22.59,7.21-31.92,6.59-9.33,16.42-15.53,27.67-17.47,11.25-1.94,22.59,.63,31.92,7.21,9.33,6.59,15.53,16.42,17.47,27.67,1.94,11.25-.63,22.59-7.21,31.92-6.59,9.33-16.42,15.53-27.67,17.47Z"/><g><circle class="h" cx="666.07" cy="177.28" r="35.71" transform="translate(-20.42 115.51) rotate(-9.76)"/><path class="p" d="M672.37,213.89c-9.78,1.68-19.63-.54-27.73-6.27-8.1-5.72-13.49-14.26-15.18-24.04-1.68-9.78,.54-19.63,6.27-27.73,5.72-8.1,14.26-13.49,24.04-15.18,9.78-1.68,19.63,.54,27.73,6.27,8.1,5.72,13.49,14.26,15.17,24.04s-.54,19.63-6.27,27.73c-5.72,8.1-14.26,13.49-24.04,15.18Zm-12.11-70.4c-9.03,1.55-16.91,6.53-22.19,14.01-5.28,7.48-7.34,16.57-5.79,25.6,1.55,9.03,6.53,16.91,14.01,22.19,7.48,5.28,16.57,7.34,25.6,5.79,9.03-1.55,16.91-6.53,22.19-14.01,5.28-7.48,7.34-16.57,5.79-25.6-1.55-9.03-6.53-16.91-14.01-22.19-7.48-5.28-16.57-7.34-25.6-5.79Z"/><g><g><ellipse class="i" cx="649.19" cy="178.81" rx="3.99" ry="2.1" transform="translate(-20.92 112.67) rotate(-9.76)"/><ellipse class="p" cx="648.17" cy="172.9" rx="3.56" ry="6" transform="translate(-19.93 112.41) rotate(-9.76)"/></g><g><ellipse class="i" cx="682.5" cy="173.08" rx="3.99" ry="2.1" transform="translate(-19.47 118.23) rotate(-9.76)"/><ellipse class="p" cx="681.48" cy="167.17" rx="3.56" ry="6" transform="translate(-18.48 117.97) rotate(-9.76)"/></g><g><ellipse class="i" cx="664.74" cy="169.53" rx="3.99" ry="2.1" transform="translate(-19.12 115.17) rotate(-9.76)"/><ellipse class="p" cx="663.72" cy="163.61" rx="3.56" ry="6" transform="translate(-18.13 114.91) rotate(-9.76)"/></g><path class="p" d="M669.68,198.28c-5.28,.91-8.99-.67-11.16-2.16-2.38-1.63-3.51-3.51-3.56-3.59l1.23-.73,1.23-.73c.14,.24,3.61,5.8,11.78,4.4,3-.52,5.51-2.04,7.47-4.52,1.5-1.91,2.1-3.69,2.11-3.71l2.72,.88c-.11,.35-2.88,8.62-11.82,10.16Z"/><path class="p" d="M653.09,194.03c-.62,.11-1.25-.21-1.53-.8-.34-.71-.03-1.56,.68-1.9l5.67-2.68c.71-.34,1.56-.03,1.9,.68,.34,.71,.03,1.56-.68,1.9l-5.67,2.68c-.12,.06-.24,.09-.37,.12Z"/><path class="p" d="M683.31,188.83c-.15,.03-.31,.03-.47,0l-6.11-.99c-.78-.13-1.31-.86-1.18-1.64,.13-.78,.86-1.31,1.64-1.18l6.11,.99c.78,.13,1.31,.86,1.18,1.64-.1,.62-.58,1.08-1.17,1.18Z"/></g></g></g><g><path d="M413.65,76.41h-3.72l-.97-3.13h-4.75l-.99,3.13h-3.63l4.87-13.86h4.33l4.85,13.86Zm-8.76-5.59h3.4l-1.7-5.61-1.7,5.61Z"/><path d="M426.04,65.34h-7.16v2.94h5.71v2.79h-5.71v5.33h-3.61v-13.86h10.77v2.79Z"/><path d="M434.29,61.46l-5.88,16.42h-3.32l5.88-16.42h3.32Z"/><path d="M446.91,65.34h-7.16v2.94h5.71v2.79h-5.71v5.33h-3.61v-13.86h10.77v2.79Z"/><path d="M461.17,72.44c-.27,.97-.69,1.76-1.28,2.38-.59,.62-1.29,1.08-2.1,1.36-.81,.29-1.71,.43-2.69,.43-1.4,0-2.61-.28-3.63-.85-1.02-.57-1.81-1.38-2.35-2.45s-.82-2.34-.82-3.84,.27-2.78,.82-3.84c.55-1.06,1.33-1.88,2.35-2.45,1.02-.57,2.23-.85,3.61-.85,.97,0,1.86,.14,2.67,.41,.81,.27,1.5,.69,2.06,1.25,.56,.56,.96,1.28,1.2,2.16l-3.17,1.28c-.2-.87-.51-1.46-.96-1.78-.44-.32-1-.48-1.67-.48s-1.23,.16-1.71,.48c-.48,.32-.85,.8-1.11,1.44-.26,.64-.39,1.43-.39,2.38s.12,1.73,.36,2.37c.24,.64,.6,1.13,1.08,1.45,.48,.32,1.08,.48,1.8,.48,.67,0,1.24-.19,1.71-.56,.47-.37,.79-.94,.96-1.71l3.28,.92Z"/></g><rect class="p" x="307.27" y="214.04" width="240" height="30" rx="14.65" ry="14.65"/><text class="u" transform="translate(33.97 192.96)"><tspan x="0" y="0">for authorized use only</tspan></text><text class="r" transform="translate(60.6 107.2)"><tspan x="0" y="0">loading...</tspan></text></g></g></g></g></svg>