<?xml version="1.0" encoding="UTF-8"?><svg xmlns="http://www.w3.org/2000/svg" xmlns:xlink="http://www.w3.org/1999/xlink" viewBox="0 0 850 120"><defs><style>.e,.f{fill:none;}.f{stroke:#0e0707;stroke-linejoin:round;stroke-width:8px;}.g{fill:#32373a;}.h{fill:#25292b;}.i{fill:#42474b;}.j{fill:#0e0707;}.k{fill:#636d74;}.l{fill:#525a62;}.m{clip-path:url(#d);}</style><clipPath id="d"><rect class="e" width="850" height="120"/></clipPath></defs><g id="a"/><g id="b"><g id="c"><g class="m"><g><rect class="l" x="25" y="-200.72" width="800" height="260"/><rect class="i" x="25" y="36.93" width="800" height="22.35"/><rect class="f" x="25" y="-200.72" width="800" height="260"/><path class="k" d="M557.27-1.31c0-13.61-11.04-24.65-24.65-24.65h-210.71c-13.61,0-24.65,11.04-24.65,24.65h0c0,3.27,2.65,5.92,5.92,5.92h248.16c3.27,0,5.92-2.65,5.92-5.92h0Z"/><path class="g" d="M105,59.28v20c0,5.52-4.48,10-10,10h-30c-5.52,0-10-4.48-10-10v-20"/><path class="h" d="M105,72.28v-13H55v13"/><rect class="j" x="307.27" y="-15.96" width="240" height="30" rx="14.65" ry="14.65"/><path class="f" d="M55,59.28h50v20c0,5.52-4.48,10-10,10h-30c-5.52,0-10-4.48-10-10v-20h0Z"/><path class="g" d="M795,59.28v20c0,5.52-4.48,10-10,10h-30c-5.52,0-10-4.48-10-10v-20"/><path class="h" d="M795,72.28v-13h-50v13"/><path class="f" d="M745,59.28h50v20c0,5.52-4.48,10-10,10h-30c-5.52,0-10-4.48-10-10v-20h0Z"/><circle class="k" cx="80" cy="36.93" r="4"/><circle class="k" cx="770" cy="36.93" r="4"/><circle class="k" cx="707.27" cy="36.93" r="4"/><circle class="k" cx="644.55" cy="36.93" r="4"/><circle class="k" cx="456.36" cy="36.93" r="4"/><circle class="k" cx="393.64" cy="36.93" r="4"/><circle class="k" cx="330.91" cy="36.93" r="4"/><circle class="k" cx="268.18" cy="36.93" r="4"/><circle class="k" cx="205.45" cy="36.93" r="4"/><circle class="k" cx="142.73" cy="36.93" r="4"/><circle class="k" cx="519.09" cy="36.93" r="4"/><circle class="k" cx="581.82" cy="36.93" r="4"/></g></g></g></g></svg>